<svg width="429" height="125" viewBox="0 0 429 125" fill="none" xmlns="http://www.w3.org/2000/svg">
<g clip-path="url(#clip0_1_1125)">
<rect opacity="0.9" x="-3.27539" y="-22" width="432" height="169" fill="white"/>
<path d="M95.2891 0H29.7113C13.3022 0 0 13.3022 0 29.7113V95.2883C0 111.698 13.3022 125 29.7113 125H95.2891C111.698 125 125 111.698 125 95.2883V29.7113C125 13.3022 111.698 0 95.2891 0Z" fill="#4FB1F3"/>
<path d="M31.3245 36.4693C37.073 36.4693 41.733 31.8092 41.733 26.0608C41.733 20.3123 37.073 15.6523 31.3245 15.6523C25.5761 15.6523 20.916 20.3123 20.916 26.0608C20.916 31.8092 25.5761 36.4693 31.3245 36.4693Z" fill="white"/>
<path d="M62.557 57.2798C68.3054 57.2798 72.9654 52.6198 72.9654 46.8713C72.9654 41.1229 68.3054 36.4629 62.557 36.4629C56.8084 36.4629 52.1484 41.1229 52.1484 46.8713C52.1484 52.6198 56.8084 57.2798 62.557 57.2798Z" fill="white"/>
<g opacity="0.45">
<path d="M72.786 109.42L57.4616 109.367C37.2739 109.367 20.8223 92.9154 20.8223 72.6952V26.283C20.8223 20.5152 25.4955 15.8418 31.2635 15.8418C37.0314 15.8418 41.7048 20.5152 41.7048 26.283V72.6952C41.7048 81.406 48.7902 88.4849 57.4945 88.4849L72.8187 88.5373C81.503 88.5373 88.6015 81.5302 88.6015 72.9245C88.6015 64.3186 81.503 57.3119 72.786 57.3119H63.0264C57.2584 57.3119 52.5852 52.6385 52.5852 46.8706C52.5852 41.1027 57.2584 36.4294 63.0264 36.4294H72.786C93.0194 36.4294 109.484 52.8024 109.484 72.9245C109.484 93.0466 93.0194 109.42 72.786 109.42Z" fill="white"/>
</g>
<path d="M260.317 48.3627C256.05 45.8523 251.187 44.5742 245.864 44.5742C240.542 44.5742 235.738 45.8458 231.484 48.3627C227.237 50.873 223.861 54.3273 221.449 58.6335C219.044 62.9267 217.824 67.6984 217.824 72.8173C217.824 77.9364 219.044 82.7475 221.449 87.0272C223.861 91.3139 227.237 94.7616 231.484 97.2717C235.738 99.7889 240.555 101.061 245.812 101.061C251.069 101.061 255.998 99.7952 260.284 97.2983C264.57 94.8006 267.966 91.3538 270.378 87.0538C272.784 82.7538 274.002 77.9691 274.002 72.8239C274.002 67.6787 272.784 62.9398 270.378 58.6401C267.966 54.3404 264.584 50.8862 260.317 48.3692V48.3627ZM253.107 85.867C250.996 87.1327 248.578 87.7678 245.916 87.7678C243.255 87.7678 240.837 87.1256 238.727 85.867C236.616 84.6022 234.931 82.8194 233.705 80.5647C232.48 78.2967 231.857 75.6882 231.857 72.8108C231.857 69.9334 232.48 67.3641 233.705 65.0831C234.925 62.8152 236.623 61.0128 238.752 59.7347C240.877 58.4566 243.288 57.8077 245.91 57.8077C248.532 57.8077 250.951 58.4566 253.074 59.7347C255.198 61.0128 256.895 62.8152 258.121 65.0831C259.347 67.3706 259.97 69.9662 259.97 72.8108C259.97 75.6555 259.347 78.2967 258.121 80.5647C256.902 82.8194 255.211 84.6022 253.1 85.867H253.107Z" fill="black"/>
<path d="M296.013 46.4611H312.563V58.8949H296.013V79.8427C296.013 86.9349 299.676 87.7544 302.429 87.7544H312.563V99.8404H299.932C294.813 99.8404 290.493 98.392 287.092 95.5279C283.638 92.624 281.881 87.1576 281.881 79.2927V31.4383L296.013 31.3203V46.4611Z" fill="black"/>
<path d="M337.731 46.4609H323.6V99.8402H337.731V46.4609Z" fill="black"/>
<path d="M339.448 32.5848C339.448 37.3498 335.509 41.2301 330.666 41.2301C325.822 41.2301 321.883 37.3498 321.883 32.5848C321.883 27.8197 325.822 23.9395 330.666 23.9395C335.509 23.9395 339.448 27.8197 339.448 32.5848Z" fill="black"/>
<path d="M203.319 62.0013C207.448 58.4552 209.696 53.428 209.696 47.6798C209.696 36.1046 200.14 27.0332 187.941 27.0332H156.461V99.8664H192.209C201.444 99.8664 209.42 93.718 211.616 84.9219C214.048 75.1626 210.955 66.7073 203.319 61.9947V62.0013ZM170.14 56.561V40.0045H187.941C192.549 40.0045 196.016 43.5635 196.016 48.2827C196.016 53.002 192.543 56.561 187.941 56.561H170.14ZM198.75 78.0137C198.75 83.0805 195.06 86.8953 190.17 86.8953H170.146V69.1259H190.17C195.066 69.1259 198.75 72.9472 198.75 78.0137Z" fill="black"/>
<path d="M428.301 99.8928H414.406V68.6612C414.406 65.325 413.567 62.7032 411.921 60.868C410.27 59.0262 408.042 58.1282 405.111 58.1282C402.182 58.1282 399.966 59.0262 398.328 60.868C396.696 62.7032 395.864 65.325 395.864 68.6612V99.8928H381.922V68.6612C381.922 65.325 381.083 62.7032 379.438 60.868C377.786 59.0262 375.557 58.1282 372.634 58.1282C369.711 58.1282 367.489 59.0262 365.85 60.868C364.218 62.7032 363.386 65.325 363.386 68.6612V99.8928H349.49V68.6481C349.49 61.3727 351.47 55.5982 355.383 51.4885C359.316 47.3592 365.116 45.2684 372.634 45.2684C381.064 45.2684 386.287 49.4042 387.69 50.6692L389.086 51.836L390.698 50.5775C394.644 47.3921 400.032 45.3995 405.099 45.2684C412.532 45.0849 418.568 47.2937 422.5 51.6786C426.342 55.8014 428.301 61.5169 428.301 68.6416V99.8928Z" fill="black"/>
</g>
<defs>
<clipPath id="clip0_1_1125">
<rect width="428.906" height="125" fill="white"/>
</clipPath>
</defs>
</svg>
